<?xml version="1.0" encoding="utf-8"?>
<svg fill="none" height="23" viewBox="0 0 23 23" width="23" xmlns="http://www.w3.org/2000/svg">
<path d="M5.94617 21.5107C5.76863 21.4558 5.60232 21.3849 5.47081 21.2433C5.19233 20.9437 5.16448 20.4606 5.43794 20.1571C5.69669 19.8699 5.97866 19.6032 6.25056 19.3279C6.36505 19.2122 6.35461 19.0361 6.22852 18.9366C4.6141 17.6685 3.59454 16.0276 3.16367 14.0214C2.99233 13.224 2.94398 12.4149 3.02675 11.6052C3.27236 9.19591 4.34722 7.23647 6.24902 5.73534C6.29891 5.69586 6.32482 5.65831 6.32405 5.59135C6.32096 5.1489 6.32405 4.70607 6.3198 4.26363C6.31941 4.21563 6.29311 4.15641 6.25946 4.12196C5.87384 3.73022 5.48242 3.34391 5.09602 2.95256C4.75024 2.60225 4.74328 2.09361 5.07785 1.75569C5.23294 1.59892 5.42324 1.5126 5.64487 1.51221C7.27089 1.51066 8.89691 1.50989 10.5229 1.51221C10.9739 1.51298 11.3228 1.89465 11.3255 2.38238C11.3286 2.88366 11.3263 3.38494 11.3263 3.88622C11.3263 3.92454 11.3263 3.96248 11.3263 3.98377C14.6731 4.1537 17.1817 5.64167 18.7691 8.61605C20.192 11.6659 19.8795 14.5641 18.0156 17.3422C18.04 17.3422 18.0733 17.3422 18.1065 17.3422C18.474 17.3441 18.8418 17.3368 19.2085 17.3515C19.5361 17.3646 19.7728 17.5415 19.9058 17.8365C20.0373 18.1284 20.0122 18.4218 19.8118 18.6734C19.5771 18.9683 19.3214 19.2467 19.0731 19.5308C18.5981 20.0746 18.1189 20.615 17.6486 21.1631C17.4958 21.3412 17.3132 21.4546 17.0897 21.5104H5.94617V21.5107ZM19.1435 18.1791C19.0789 18.1791 19.0437 18.1791 19.0085 18.1791C18.2933 18.1791 17.5782 18.1791 16.863 18.1791C15.9622 18.1791 15.0618 18.1791 14.161 18.1791C13.0973 18.1791 12.0341 18.1791 10.9704 18.1791C10.649 18.1791 10.4897 18.0204 10.4897 17.7014C10.4897 13.7957 10.4897 9.88958 10.4897 5.98385C10.4897 4.80904 10.4897 3.63384 10.4897 2.45903V2.35374H5.68548C5.71874 2.38974 5.74117 2.41567 5.76554 2.44006C6.17011 2.84534 6.57275 3.25256 6.9808 3.65397C7.10496 3.77629 7.16143 3.91061 7.16066 4.08712C7.1564 5.48683 7.15834 6.88616 7.15834 8.28587C7.15834 11.9802 7.15756 15.6746 7.15988 19.3686C7.15988 19.5296 7.10999 19.6562 6.9955 19.7681C6.71857 20.0386 6.44705 20.3146 6.17359 20.5887C6.15155 20.6108 6.13105 20.634 6.09894 20.6684C6.14497 20.6704 6.1763 20.6731 6.20724 20.6731C9.76523 20.6731 13.3232 20.6735 16.8812 20.6708C16.9276 20.6708 16.988 20.6421 17.0189 20.6069C17.5697 19.9821 18.117 19.3547 18.665 18.7276C18.8186 18.5518 18.9721 18.3753 19.1435 18.1791ZM11.3309 17.3422H11.4303C12.3667 17.3422 13.3035 17.343 14.2399 17.3403C14.2948 17.3403 14.3563 17.3217 14.4031 17.2926C14.8788 16.9981 15.3093 16.647 15.6737 16.222C16.9582 14.7247 17.4157 13.0033 17.0073 11.0733C16.7242 9.73474 16.0222 8.63734 14.9539 7.78227C14.0419 7.05222 12.9972 6.64229 11.8353 6.53352C11.6686 6.51803 11.5007 6.51571 11.3309 6.5072V17.3422ZM15.775 17.3426C16.1038 17.3426 16.438 17.3387 16.7721 17.3449C16.8704 17.3468 16.9338 17.3139 16.9957 17.2412C18.1054 15.9324 18.7099 14.4201 18.8027 12.708C18.8557 11.7337 18.72 10.7807 18.3873 9.8617C17.6865 7.92355 16.4101 6.49636 14.5613 5.5867C13.7398 5.18219 12.868 4.95342 11.9571 4.8733C11.751 4.8551 11.5436 4.85278 11.3317 4.84272V5.67263C12.2561 5.6827 13.1407 5.86037 13.9842 6.22965C14.8293 6.59971 15.5677 7.12073 16.197 7.79504C16.8267 8.46935 17.3159 9.23578 17.5998 10.1133C18.5003 12.898 17.8176 15.2895 15.7746 17.3426H15.775ZM6.3167 6.78435C6.30665 6.78164 6.29659 6.77893 6.28653 6.77622C4.46673 8.52741 3.61698 10.6572 3.88308 13.1899C4.08034 15.0661 4.9212 16.6323 6.30935 17.905C6.32173 17.6399 6.30819 17.379 6.3256 17.12C6.34223 16.873 6.26758 16.6872 6.11171 16.4883C4.89645 14.9341 4.44314 13.174 4.75643 11.2246C4.95214 10.0088 5.46849 8.93811 6.26333 7.99942C6.29543 7.96149 6.31825 7.90304 6.31902 7.85349C6.32366 7.52485 6.32173 7.19621 6.32134 6.86758C6.32134 6.8397 6.31825 6.81222 6.31632 6.78435H6.3167ZM6.31825 9.39294C5.76631 10.3026 5.49557 11.2885 5.49673 12.3484C5.49789 13.4059 5.76825 14.3895 6.31825 15.296V9.39294Z" fill="#BFD93F"/>
</svg>