<svg width="23" height="17" viewBox="0 0 23 17" fill="none" xmlns="http://www.w3.org/2000/svg">
<g clip-path="url(#clip0_275_3872)">
<path d="M14.4736 3.10938C15.3721 4.16826 15.97 5.38105 16.2666 6.75098C16.3534 7.15147 16.4085 7.55792 16.4336 7.96973C16.4656 8.48667 16.4541 9.00014 16.3906 9.50977V9.51074C16.1993 11.0483 15.6389 12.4266 14.6904 13.6357C13.7473 14.8381 12.5679 15.7068 11.1504 16.2402C10.5714 16.458 9.9766 16.6062 9.36523 16.6777L8.72852 16.7344C8.69621 16.7372 8.65127 16.7447 8.62402 16.749H8.10742C8.07985 16.7443 8.03715 16.7361 8.00586 16.7344H8.00488C6.18923 16.6425 4.57902 16.0157 3.18457 14.8311C1.83657 13.6853 0.949127 12.239 0.515625 10.502C0.406769 10.0646 0.338326 9.61894 0.301758 9.16602C0.269302 8.75984 0.26345 8.3559 0.291992 7.95312C0.392554 6.53976 0.808308 5.24073 1.55273 4.05859L1.70605 3.82422C1.87401 3.57597 2.05575 3.33866 2.25 3.11133C2.46991 3.33167 2.68964 3.55147 2.90918 3.77148C3.1379 4.0007 3.36653 4.23035 3.5957 4.45996C2.60968 5.69165 2.11975 7.11194 2.16113 8.71777C2.18712 9.73359 2.45184 10.687 2.9375 11.583L3.07812 11.8428L3.31152 11.6611C3.3201 11.6545 3.3238 11.6515 3.33691 11.6416C3.34737 11.6337 3.36503 11.6214 3.38281 11.6045L3.38574 11.6016L6.6377 8.41113C6.67094 8.37826 6.69828 8.34202 6.71973 8.30664L6.76953 8.20703C7.09895 7.39953 7.42705 6.59109 7.75586 5.7832C7.75582 7.16851 7.755 8.55413 7.75684 9.93945C6.7057 10.9668 5.65729 11.9974 4.60742 13.0254C4.59305 13.0395 4.59185 13.0367 4.53027 13.0859L4.28613 13.2812L4.53125 13.4766C5.09639 13.928 5.70155 14.2614 6.3623 14.4883C7.50681 14.8807 8.67167 14.9326 9.8457 14.6426C10.7034 14.4307 11.4786 14.0439 12.1816 13.4883L12.3955 13.3203L12.21 13.1211C12.1929 13.1029 12.1573 13.063 12.1299 13.0361C11.0731 12.0001 10.0557 11.0046 8.99902 9.96875L8.96875 9.93848C8.97048 9.57657 8.96973 9.21474 8.96973 8.85449V5.78223C9.29578 6.58169 9.62213 7.38096 9.94727 8.18066V8.18164C9.98825 8.28158 10.0459 8.36378 10.1191 8.43555L13.2891 11.541C13.3203 11.5718 13.353 11.6033 13.3809 11.6299L13.5625 11.8027L13.7354 11.6201C13.8347 11.5149 13.9252 11.3418 14.0029 11.1631C14.0848 10.9749 14.1662 10.7473 14.2402 10.5088C14.3872 10.0351 14.5115 9.49316 14.5439 9.09473C14.6149 8.22254 14.5292 7.36502 14.2588 6.52734C14.0121 5.76375 13.635 5.0753 13.1406 4.4668C13.5855 4.01366 14.0282 3.56242 14.4736 3.10938Z" stroke="currentColor" stroke-width="0.5"/>
<path d="M15.8047 1.71777C16.5004 2.51197 17.0624 3.39038 17.4863 4.35742L17.667 4.79688C17.6699 4.80442 17.6727 4.81143 17.6748 4.81641C17.6758 4.81877 17.677 4.8215 17.6777 4.82324C17.6785 4.8251 17.6792 4.82682 17.6797 4.82812C17.682 4.83381 17.6818 4.83207 17.6807 4.82812L17.6816 4.83105C17.7011 4.89486 17.7417 4.96581 17.8184 5.01367C17.8909 5.05891 17.9655 5.06541 18.0166 5.0625L18.0205 5.06152C18.0366 5.06039 18.0316 5.0625 18.083 5.0625H22.2832C22.4039 5.0625 22.498 5.0952 22.5771 5.16309V5.16211C22.6725 5.24401 22.7202 5.32787 22.7295 5.42969V5.43066C22.7326 5.46429 22.7418 5.49273 22.749 5.5127V11.5117C22.7429 11.5293 22.7339 11.5511 22.7305 11.5771C22.7049 11.7678 22.5448 11.9217 22.3672 11.9404C22.3218 11.9452 22.2724 11.9463 22.2139 11.9463H18.1211C18.0227 11.9463 17.9211 11.9701 17.8311 12.0312C17.7409 12.0925 17.6823 12.1784 17.6465 12.2705C17.2144 13.3834 16.6068 14.3835 15.8311 15.2773C15.7677 15.2129 15.7048 15.1483 15.6416 15.084C15.5688 15.0099 15.4957 14.9355 15.4229 14.8613C16.9679 13.0554 17.7915 10.9353 17.791 8.50293C17.791 6.06864 16.9658 3.94682 15.4092 2.13086C15.468 2.06699 15.5399 1.99067 15.6133 1.91406C15.6791 1.84533 15.7457 1.77717 15.8047 1.71777ZM19.3457 5.83105C19.2824 5.83105 19.2238 5.84057 19.1709 5.85547L19.0293 5.91113C18.8922 5.97881 18.7643 6.07374 18.6621 6.2041L18.6611 6.20508C18.4833 6.43307 18.3669 6.69464 18.3359 6.98926L18.3281 7.11719V7.57031C18.3281 7.60998 18.3334 7.66469 18.334 7.67285L18.3477 7.86523L18.5361 7.90137C18.5866 7.91101 18.6826 7.91412 18.7656 7.91602C18.8608 7.91818 18.9776 7.91839 19.0928 7.91797C19.2078 7.91755 19.323 7.91596 19.415 7.91309C19.4609 7.91165 19.5033 7.91043 19.5371 7.9082C19.5599 7.9067 19.6083 7.90297 19.6465 7.89258L19.8154 7.84668L19.8301 7.6709C19.8312 7.65716 19.8368 7.60263 19.8369 7.55762V7.34668L20.6064 7.34766C20.6763 7.34856 20.7389 7.33578 20.7959 7.3125L18.8213 9.20996C18.7135 9.31394 18.5982 9.42619 18.4912 9.54785C18.3295 9.73128 18.2281 9.95855 18.2188 10.2168C18.2106 10.4408 18.2128 10.6677 18.2119 10.8818V10.8838C18.212 10.927 18.2215 10.9618 18.2256 10.9766C18.2275 10.9836 18.2299 10.9931 18.2305 10.9951C18.2314 10.9982 18.2323 10.9994 18.2324 11L18.2773 11.1826L18.4639 11.1904C18.4901 11.1916 18.5543 11.1963 18.6016 11.1963H21.4268C21.7369 11.1976 21.9757 11.0529 22.1484 10.8262C22.3868 10.5131 22.3541 10.157 22.333 9.89551L22.3145 9.66504H20.3779L21.585 8.50391C21.6957 8.39742 21.8132 8.28235 21.9219 8.15625C22.1181 7.92872 22.2146 7.65589 22.2158 7.3584C22.2163 7.21329 22.2202 7.08341 22.2217 6.93066C22.223 6.78271 22.1905 6.6393 22.1133 6.49512L21.9922 6.26758L22.0244 6.24414L21.7529 6.0459C21.7229 6.02396 21.6763 5.98679 21.6406 5.96484L21.6396 5.96387L21.5186 5.90332C21.4373 5.87009 21.3547 5.85004 21.2725 5.84082L21.1494 5.83496C20.5483 5.83448 19.9477 5.83344 19.3467 5.83105H19.3457Z" stroke="currentColor" stroke-width="0.5"/>
<path d="M3.15381 2.23145C5.9814 -0.306375 10.587 -0.427893 13.5767 2.21777C13.1352 2.6674 12.6932 3.11765 12.2476 3.57129C11.1192 2.6657 9.82085 2.18323 8.35791 2.18457C6.89789 2.18599 5.60101 2.6682 4.46533 3.58105C4.02742 3.1304 3.59053 2.68088 3.15381 2.23145Z" stroke="currentColor" stroke-width="0.5"/>
</g>
<defs>
<clipPath id="clip0_275_3872">
<rect width="23" height="17" fill="white"/>
</clipPath>
</defs>
</svg>
