<svg width="23" height="23" viewBox="0 0 23 23" fill="none" xmlns="http://www.w3.org/2000/svg">
<g clip-path="url(#clip0_275_3855)">
<path d="M11.6289 4.93848C11.6607 4.93864 11.7151 4.94999 11.7754 4.98047C11.8347 5.01052 11.8795 5.04895 11.9043 5.08301C13.8041 7.71193 15.6918 10.3564 17.5811 13C15.114 12.8892 12.7026 12.7814 10.291 12.6729L10.0547 12.6621L9.98926 12.8896C9.97995 12.9221 9.96943 12.9623 9.96191 12.9893L9.90234 13.2031L10.0898 13.3232C13.327 15.3834 16.5642 17.4422 19.8467 19.5312C17.0717 19.5333 14.2982 19.5377 11.5244 19.5225C11.5007 19.5222 11.4517 19.5115 11.3916 19.4785C11.333 19.4463 11.2846 19.4039 11.2559 19.3643C9.3534 16.7349 7.46371 14.0905 5.57031 11.4482C8.04722 11.5619 10.453 11.6733 12.8594 11.7832L13.0996 11.7949L13.1621 11.5625C13.1684 11.5395 13.1828 11.4897 13.1914 11.457L13.2471 11.2451L13.0625 11.1279C9.83426 9.07313 6.60559 7.0185 3.31836 4.92676C6.08942 4.92552 8.85914 4.92316 11.6289 4.93848Z" stroke="currentColor" stroke-width="0.6"/>
<path d="M20.8862 16.5903C19.9207 16.1052 18.9659 15.6258 18.0151 15.1479C18.4712 15.223 18.9318 15.2996 19.4009 15.3765L19.6929 15.4243L19.7446 15.1333C20.1118 13.1004 20.4741 11.0932 20.8491 9.01416L20.9263 8.58936L20.5015 8.66553C20.0157 8.75236 19.5395 8.83736 19.0688 8.92139C20.2859 8.3335 21.5089 7.74316 22.7505 7.14307C22.1242 10.3186 21.5095 13.4298 20.8862 16.5903Z" stroke="currentColor" stroke-width="0.6"/>
<path d="M5.14258 9.30713C4.68494 9.2324 4.22415 9.15776 3.75781 9.08154L3.4668 9.03369L3.41406 9.32471C3.04338 11.3731 2.68161 13.3694 2.30664 15.4419L2.23047 15.8667L2.65527 15.7905C3.13855 15.7041 3.61505 15.6182 4.08789 15.5337C2.87638 16.1187 1.65633 16.7077 0.40918 17.3101C1.03771 14.1245 1.65127 11.0141 2.27148 7.86572C3.23769 8.35079 4.19222 8.82977 5.14258 9.30713Z" stroke="currentColor" stroke-width="0.6"/>
</g>
<defs>
<clipPath id="clip0_275_3855">
<rect width="23" height="22" fill="white" transform="translate(0 0.5)"/>
</clipPath>
</defs>
</svg>
